<?xml version="1.0" encoding="UTF-8"?>
<svg id="Layer_1" data-name="Layer 1" xmlns="http://www.w3.org/2000/svg" viewBox="0 0 1920 1080">
  <defs>
    <style>
      .cls-1 {
        fill: #fff;
      }
    </style>
  </defs>
  <g>
    <path class="cls-1" d="m864.53,114.84c-41.62,16.18-86.08,24.54-131.65,24.54-55.95,0-112.12-13.24-162.43-38.29l-47.02-23.4v243.18c0,44.89,5.53,88.91,16.15,131.2,5.28,21.14,11.85,41.84,19.64,62.01,5.8,15.06,12.29,29.84,19.45,44.27,9.84,19.92,20.93,39.19,33.22,57.7l64.92-20.5c-9-13.23-21.61-32.66-35.23-57.07-18.82-33.72-32.98-59.09-42.59-94.29-4.77-17.46-10.12-43.57-10.26-76.71,89.76,35.89,186.05,73.51,275.82,109.4v237.52c0,25.03,12.77,48.33,33.87,61.79l31.16,19.88V81.67c-20.67,13.3-42.44,24.39-65.04,33.17Zm-276.07,64.45c46.32,16.52,95.43,25.12,144.42,25.12,45.22,0,89.49-6.98,131.65-20.57v223.75l-276.04-106.6"/>
    <g>
      <path class="cls-1" d="m1032.46,102.25c-14.16-6.76-27.93-14.5-41.23-23.17,3.95,2.46,22.32,13.76,41.23,23.17Z"/>
      <path class="cls-1" d="m1331.53,178.44h0c-45.67,16-94.03,24.34-142.2,24.34s-91.12-7.25-133.99-21.36c0,0,0,0,0,0v226.39s276.2-87.22,276.2-87.22l65.04-20.54v20.8c0,16.16-.72,32.19-2.13,48.08l-68.01,21.48-271.09,85.61v243.26c0,22.04-11.25,42.56-29.83,54.41l-35.06,22.37s-.05.05-.15.15V78.16l.15.44s.15.1.44.28c.11.08.23.15.34.21,13.3,8.67,27.07,16.41,41.23,23.17,7.87,3.92,15.84,7.51,22.88,10,42.34,16.81,87.62,25.49,133.99,25.49,55.15,0,110.63-12.89,160.41-37.3l46.83-22.94v73.97l-65.04,26.97Z"/>
      <path class="cls-1" d="m1055.34,112.25c-7.04-2.49-15.01-6.08-22.88-10,7.53,3.61,15.15,6.94,22.88,10Z"/>
    </g>
    <path class="cls-1" d="m1055.34,112.25c-7.04-2.49-15.01-6.08-22.88-10,7.53,3.61,15.15,6.94,22.88,10Z"/>
  </g>
  <g>
    <path class="cls-1" d="m591.76,929.92l-8.34-22.66h-37.6l-8.34,22.66h-14.19l33.49-87.14h16.43l33.36,87.14h-14.81Zm-27.14-73.7l-14.44,39.09h29.01l-14.56-39.09Z"/>
    <path class="cls-1" d="m629.73,838.17v35.6c2.16-3.57,5-6.33,8.53-8.28,3.53-1.95,7.45-2.92,11.76-2.92,5.15,0,9.73,1.24,13.76,3.73,4.02,2.49,7.18,6,9.46,10.52,2.28,4.52,3.42,9.73,3.42,15.62v9.09c0,5.89-1.14,11.1-3.42,15.62-2.28,4.52-5.46,8.01-9.52,10.46-4.07,2.45-8.63,3.67-13.69,3.67-4.4,0-8.34-1-11.83-2.99-3.49-1.99-6.31-4.81-8.47-8.47v10.08h-13.2v-91.75h13.2Zm4.54,76.37c3.03,3.44,7.16,5.17,12.39,5.17s9.36-1.72,12.39-5.17c3.03-3.44,4.54-8.11,4.54-14v-7.1c0-5.89-1.52-10.58-4.54-14.07-3.03-3.49-7.16-5.23-12.39-5.23s-9.36,1.74-12.39,5.23c-3.03,3.49-4.54,8.17-4.54,14.07v7.1c0,5.89,1.51,10.56,4.54,14Z"/>
    <path class="cls-1" d="m736.92,919.83c-2.16,3.65-4.98,6.47-8.46,8.47-3.49,1.99-7.47,2.99-11.95,2.99-5.06,0-9.61-1.23-13.63-3.67-4.03-2.45-7.18-5.93-9.46-10.46-2.28-4.52-3.42-9.73-3.42-15.62v-9.09c0-5.89,1.14-11.1,3.42-15.62,2.28-4.52,5.43-8.03,9.46-10.52,4.02-2.49,8.57-3.73,13.63-3.73,4.4,0,8.34.98,11.83,2.92,3.49,1.95,6.35,4.71,8.59,8.28v-35.6h13.2v91.75h-13.2v-10.08Zm-4.61-40.46c-3.07-3.49-7.22-5.23-12.45-5.23s-9.36,1.74-12.39,5.23c-3.03,3.49-4.54,8.17-4.54,14.07v7.1c0,5.89,1.51,10.56,4.54,14,3.03,3.44,7.16,5.17,12.39,5.17s9.48-1.72,12.51-5.17c3.03-3.44,4.54-8.11,4.54-14v-7.1c0-5.89-1.54-10.58-4.61-14.07Z"/>
    <path class="cls-1" d="m782.85,864.06v40.08c0,4.4,1.37,8.05,4.11,10.96,2.74,2.91,6.31,4.36,10.71,4.36s8.3-1.49,11.2-4.48c2.9-2.99,4.36-6.76,4.36-11.33v-39.59h13.2v65.85h-13.2v-11.58c-1.83,4.07-4.54,7.24-8.15,9.52-3.61,2.28-7.62,3.42-12.01,3.42s-8.63-1.06-12.2-3.17c-3.57-2.12-6.33-5.02-8.28-8.71-1.95-3.69-2.93-7.82-2.93-12.39v-42.95h13.2Z"/>
    <path class="cls-1" d="m846.09,838.17h13.2v91.75h-13.2v-91.75Z"/>
    <path class="cls-1" d="m878.96,838.17h13.2v91.75h-13.2v-91.75Z"/>
    <path class="cls-1" d="m917.11,928.61c-3.36-1.7-6-4.05-7.91-7.03-1.91-2.99-2.86-6.35-2.86-10.08,0-5.73,1.82-10.25,5.48-13.57,3.65-3.32,8.88-5.23,15.69-5.73l19.42-1.25v-4.23c0-3.82-1.08-6.76-3.24-8.84-2.16-2.07-5.23-3.11-9.21-3.11-6.14,0-11.91,2.16-17.3,6.47l-6.1-9.59c3.82-3.07,7.76-5.31,11.83-6.72,4.07-1.41,8.42-2.12,13.07-2.12,7.3,0,13.11,2.01,17.43,6.04,4.31,4.03,6.47,9.44,6.47,16.25v29.38c0,1.25.35,2.2,1.06,2.86.7.67,1.72,1,3.05,1h3.24v11.58h-6.72c-3.32,0-6.08-.81-8.28-2.43-2.2-1.62-3.63-3.88-4.29-6.78v-.75c-1.91,3.49-4.59,6.22-8.03,8.22-3.44,1.99-7.24,2.99-11.39,2.99s-8.03-.85-11.39-2.55Zm25.21-12.08c3.07-2.7,4.61-5.95,4.61-9.77v-5.97l-17.68,1.24c-3.32.25-5.83,1.16-7.53,2.74-1.7,1.58-2.55,3.69-2.55,6.35,0,2.82,1.12,5.1,3.36,6.85,2.24,1.74,5.1,2.61,8.59,2.61,4.4,0,8.13-1.35,11.2-4.05Z"/>
    <path class="cls-1" d="m1024.86,929.92v-40.08c0-4.4-1.37-8.05-4.11-10.96-2.74-2.9-6.31-4.36-10.71-4.36s-8.2,1.49-11.14,4.48c-2.95,2.99-4.42,6.72-4.42,11.2v39.71h-13.2v-91.75h13.2v37.47c1.91-4.06,4.67-7.26,8.28-9.58,3.61-2.32,7.61-3.49,12.01-3.49s8.61,1.08,12.14,3.24c3.53,2.16,6.26,5.08,8.22,8.78,1.95,3.69,2.93,7.82,2.93,12.39v42.95h-13.2Z"/>
    <path class="cls-1" d="m1083.37,842.78h57.39v11.95h-43.7v25.64h42.45v11.83h-42.45v37.72h-13.69v-87.14Z"/>
    <path class="cls-1" d="m1155.45,877.2c2.41-4.61,5.81-8.2,10.21-10.77,4.4-2.57,9.42-3.86,15.06-3.86,5.23,0,9.9,1.29,14,3.86,4.11,2.57,7.32,6.14,9.65,10.71,2.32,4.57,3.49,9.75,3.49,15.56v8.46h-43.07v1.12c.17,5.4,1.78,9.67,4.86,12.82,3.07,3.16,7.1,4.73,12.08,4.73,6.39,0,11.87-2.57,16.43-7.72l8.34,7.72c-6.47,7.64-14.86,11.45-25.15,11.45-5.73,0-10.83-1.27-15.31-3.8-4.48-2.53-7.97-6.1-10.46-10.71-2.49-4.61-3.73-9.9-3.73-15.87v-7.84c0-5.98,1.2-11.27,3.61-15.87Zm39.71,13.63v-.62c-.25-4.9-1.72-8.8-4.42-11.7-2.7-2.9-6.21-4.36-10.52-4.36s-7.97,1.45-10.71,4.36c-2.74,2.91-4.28,6.89-4.61,11.95v.37h30.25Z"/>
    <path class="cls-1" d="m1282.05,929.92h-17.05l-28.01-30.5v30.5h-13.2v-91.75h13.2v54.53l27.01-28.63h15.81l-30.25,31.25,32.49,34.61Z"/>
    <path class="cls-1" d="m1307.95,881.12c-3.07,3.16-4.61,7.26-4.61,12.33v36.47h-13.2v-65.85h13.2v12.95c1.33-4.15,3.49-7.45,6.47-9.9,2.99-2.45,6.55-3.67,10.71-3.67h5.35v12.95h-6.85c-4.32,0-8.01,1.58-11.08,4.73Z"/>
    <path class="cls-1" d="m1330.85,864.06h14.19l19.17,48.55,18.55-48.55h13.82l-30.87,79.17c-1.99,5.06-4.4,8.63-7.22,10.71-2.82,2.07-6.6,3.11-11.33,3.11h-8.96v-11.33h6.85c2.41,0,4.33-.6,5.79-1.8,1.45-1.2,2.68-3.13,3.67-5.79l3.24-8.09-26.89-65.98Z"/>
  </g>
</svg>